# xmcd
#
# Track frame offsets:
#	150
#	22135
#	40467
#	57277
#	76855
#	93732
#	114607
#	134475
#	147300
#	166265
#
# Disc length: 2453 seconds
#
# Revision: 0
# Processed by: cddbd v1.5.2PL0 Copyright (c) Steve Scherf et al.
# Submitted via: VUPlayer 2.48
#
DISCID=8d09930a
DTITLE=שלום חנוך - בגילגול הזה
DYEAR=1990
DGENRE=Israeli Rock 'n' Roll
TTITLE0=אומרים שבלי
TTITLE1=דיאלוג
TTITLE2=כמו סימן מלמעלה
TTITLE3=ככה וככה
TTITLE4=שלוש בלילה
TTITLE5=בגילגול הזה
TTITLE6=שיגעון
TTITLE7=ויקטוריה
TTITLE8=בדיוק כמוך
TTITLE9=ואולי זה היה סתם טיפשי
EXTD=YEAR: 1990\nNMC 467054-2
EXTT0=Two Sides
EXTT1=Dialogue
EXTT2=Like a Sign from Above
EXTT3=Any Way
EXTT4=3am
EXTT5=This Time Around
EXTT6=Madness
EXTT7=Victoria
EXTT8=Just Like You
EXTT9=Maybe it wa Foolish
PLAYORDER=
